<svg width="58" height="59" viewBox="0 0 58 59" fill="none" xmlns="http://www.w3.org/2000/svg">
<g clip-path="url(#clip0_606_86)">
<path d="M56.8373 29.2815H53.3437V22.3732C53.3422 21.4282 53.1058 20.4981 52.6555 19.6647C52.2051 18.8314 51.5546 18.1204 50.7612 17.5944L33.3265 0.3374C33.1076 0.121573 32.8111 0.000383894 32.502 0.000383894C32.193 0.000383894 31.8965 0.121573 31.6775 0.3374L28.128 3.84962L24.6064 0.3374C24.4975 0.226339 24.3672 0.138039 24.2231 0.0777427C24.0791 0.0174464 23.9243 -0.0136261 23.7679 -0.0136261C23.6115 -0.0136261 23.4567 0.0174464 23.3127 0.0777427C23.1687 0.138039 23.0384 0.226339 22.9295 0.3374L6.47861 16.6154H5.82459C4.28317 16.6197 2.80624 17.228 1.71681 18.307C0.627385 19.386 0.0141314 20.848 0.011182 22.3732V32.6223C0.0316352 32.9144 0.163316 33.1879 0.379635 33.3876C0.595953 33.5873 0.880799 33.6984 1.17666 33.6984C1.47253 33.6984 1.75737 33.5873 1.97368 33.3876C2.19 33.1879 2.32168 32.9144 2.34214 32.6223V22.3732C2.34508 21.4573 2.71411 20.5797 3.36866 19.932C4.0232 19.2843 4.91011 18.9192 5.83578 18.9163H47.5247C48.4508 18.9177 49.3386 19.2824 49.9934 19.9304C50.6483 20.5784 51.0168 21.4568 51.0183 22.3732V29.2815H33.3098C32.1597 29.2525 31.0155 29.4516 29.9444 29.8671C28.8734 30.2825 27.8972 30.9059 27.0735 31.7005C26.2497 32.4951 25.595 33.4448 25.148 34.4937C24.701 35.5426 24.4708 36.6694 24.4708 37.8077C24.4708 38.946 24.701 40.0728 25.148 41.1217C25.595 42.1705 26.2497 43.1202 27.0735 43.9148C27.8972 44.7094 28.8734 45.3328 29.9444 45.7483C31.0155 46.1637 32.1597 46.3628 33.3098 46.3338H51.0127V53.2422C51.0112 54.1585 50.6427 55.037 49.9878 55.685C49.333 56.3329 48.4452 56.6976 47.5191 56.6991H5.82459C4.89893 56.6962 4.01202 56.331 3.35748 55.6833C2.70293 55.0357 2.3339 54.1581 2.33096 53.2422V42.9931C2.3105 42.701 2.17883 42.4275 1.96251 42.2278C1.74619 42.0281 1.46135 41.917 1.16548 41.917C0.869617 41.917 0.584771 42.0281 0.368453 42.2278C0.152134 42.4275 0.0204531 42.701 0 42.9931V53.2422C0.00295875 54.7693 0.617746 56.233 1.70959 57.3123C2.80143 58.3916 4.28124 58.9985 5.82459 59H47.5247C49.068 58.9985 50.5478 58.3916 51.6397 57.3123C52.7315 56.233 53.3463 54.7693 53.3493 53.2422V46.3338H56.8429C57.1513 46.3338 57.447 46.2126 57.665 45.9969C57.8831 45.7811 58.0056 45.4885 58.0056 45.1834V30.432C58.0056 30.1269 57.8831 29.8342 57.665 29.6185C57.447 29.4027 57.1513 29.2815 56.8429 29.2815H56.8373ZM9.78219 16.6154L23.7567 2.78766L26.4846 5.4813L15.2267 16.6209L9.78219 16.6154ZM18.5247 16.6154L32.4992 2.78766L46.4738 16.6154H18.5247ZM55.669 44.0274H33.3098C31.6419 44.0274 30.0424 43.3718 28.8631 42.2049C27.6837 41.0379 27.0212 39.4552 27.0212 37.8049C27.0212 36.1546 27.6837 34.5719 28.8631 33.405C30.0424 32.238 31.6419 31.5825 33.3098 31.5825H55.669V44.0274Z" fill="#003375"/>
<path d="M33.3098 34.348C32.6188 34.348 31.9434 34.5507 31.3688 34.9306C30.7943 35.3104 30.3465 35.8503 30.0821 36.482C29.8177 37.1137 29.7485 37.8087 29.8833 38.4793C30.0181 39.1499 30.3508 39.7659 30.8394 40.2493C31.328 40.7328 31.9505 41.062 32.6282 41.1954C33.3059 41.3288 34.0084 41.2603 34.6468 40.9987C35.2851 40.737 35.8308 40.294 36.2147 39.7255C36.5985 39.157 36.8034 38.4886 36.8034 37.8049C36.8005 36.889 36.4315 36.0114 35.7769 35.3637C35.1224 34.716 34.2355 34.3509 33.3098 34.348ZM33.3098 38.9609C33.0787 38.9609 32.8529 38.8931 32.6607 38.7661C32.4686 38.6391 32.3189 38.4585 32.2305 38.2473C32.142 38.0361 32.1189 37.8036 32.164 37.5794C32.2091 37.3551 32.3203 37.1492 32.4837 36.9875C32.6471 36.8258 32.8553 36.7157 33.0819 36.6711C33.3085 36.6265 33.5434 36.6494 33.7569 36.7369C33.9704 36.8244 34.1528 36.9726 34.2812 37.1627C34.4096 37.3528 34.4781 37.5763 34.4781 37.8049C34.4781 38.1115 34.355 38.4055 34.1359 38.6223C33.9168 38.8391 33.6197 38.9609 33.3098 38.9609Z" fill="#FDBA4D"/>
<path d="M1.16839 38.9609C1.47667 38.9607 1.77222 38.8393 1.99009 38.6235C2.20821 38.4069 2.33068 38.1135 2.33068 37.8077C2.33068 37.5019 2.20821 37.2085 1.99009 36.9918C1.77208 36.7764 1.47654 36.6553 1.16839 36.6553C0.860246 36.6553 0.5647 36.7764 0.34669 36.9918C0.236655 37.098 0.149203 37.2249 0.0894947 37.365C0.0297861 37.5051 -0.000976562 37.6556 -0.000976562 37.8077C-0.000976562 37.9597 0.0297861 38.1103 0.0894947 38.2504C0.149203 38.3905 0.236655 38.5174 0.34669 38.6235C0.454196 38.7309 0.582209 38.816 0.72328 38.8739C0.86435 38.9318 1.01566 38.9614 1.16839 38.9609Z" fill="#FDBA4D"/>
</g>
<defs>
<clipPath id="clip0_606_86">
<rect width="58" height="59" fill="white"/>
</clipPath>
</defs>
</svg>