<svg width="65" height="65" viewBox="0 0 65 65" fill="none" xmlns="http://www.w3.org/2000/svg">
<circle cx="32.5" cy="32.5" r="30" stroke="#FDBA4D" stroke-width="5"/>
<path d="M41.2969 32.3189C41.1375 32.3189 40.9781 32.2658 40.8719 32.1064L40.5 31.6283C40.1281 31.1502 40.075 30.5127 40.3406 29.9814C40.4469 29.7689 40.5531 29.5564 40.6063 29.2908C40.8188 28.7064 41.2969 28.3346 41.9344 28.2283L43.6344 27.9627C43.9 27.9096 44.1125 27.6971 44.1125 27.4314V26.2627C44.1125 25.9971 43.9 25.7846 43.6344 25.7314L41.9344 25.4658C41.35 25.3596 40.8188 24.9877 40.6063 24.4033C40.5531 24.1908 40.4469 23.9783 40.3406 23.7658C40.075 23.1814 40.1281 22.5439 40.5 22.0658L41.5625 20.6314C41.7219 20.4189 41.7219 20.1002 41.5094 19.9408L40.6594 19.1439C40.4469 18.9314 40.1281 18.9314 39.9156 19.0908L38.5344 20.1002C38.0562 20.4721 37.3656 20.5252 36.8344 20.2596C36.6219 20.1533 36.4094 20.0471 36.1969 19.9939C35.6125 19.7814 35.1875 19.3033 35.1344 18.7189L34.8688 17.0189C34.8156 16.7533 34.6031 16.5408 34.3375 16.5408H33.1688C32.9031 16.5408 32.6375 16.7533 32.6375 17.0189L32.3719 18.7189C32.3188 19.3033 31.8938 19.8346 31.3094 20.0471C31.0969 20.1533 30.8844 20.2064 30.6719 20.3127C30.0875 20.5783 29.45 20.5252 28.9719 20.1533L27.5906 19.1439C27.3781 18.9846 27.0594 18.9846 26.8469 19.1971L26.05 19.9939C25.8375 20.2064 25.8375 20.4721 25.9969 20.6846L27.0594 22.1189C27.4313 22.5971 27.4844 23.2346 27.2188 23.8189C27.1125 24.0314 27.0594 24.2439 26.9531 24.5096C26.7406 25.0939 26.2625 25.4658 25.625 25.5721L23.925 25.8377C23.6594 25.8908 23.4469 26.1033 23.4469 26.3689V27.5377C23.4469 27.8033 23.6594 28.0158 23.925 28.0689L25.625 28.3346C26.2094 28.4408 26.7406 28.8127 26.9531 29.3971C27.0594 29.6627 27.1125 29.8752 27.2188 30.0346C27.3781 30.3533 27.4312 30.7252 27.3781 31.0439C27.325 31.3627 27.0594 31.5221 26.7406 31.4689C26.4219 31.4158 26.2625 31.1502 26.3156 30.8314C26.3156 30.7252 26.3156 30.6189 26.2625 30.5127C26.1563 30.2471 26.05 29.9814 25.9438 29.7689C25.8906 29.5564 25.6781 29.4502 25.5187 29.3971L23.8188 29.1314C23.0219 29.0252 22.4375 28.3346 22.4375 27.4846V26.3158C22.4375 25.5189 23.0219 24.8283 23.8188 24.6689L25.5187 24.4033C25.7312 24.3502 25.8906 24.2439 25.9438 24.0314C26.05 23.7658 26.1563 23.5002 26.2625 23.2877C26.3688 23.1283 26.3156 22.9158 26.2094 22.7564L25.1469 21.3752C24.6688 20.7377 24.7219 19.8346 25.3062 19.2502L26.1562 18.4002C26.6344 17.7096 27.5375 17.6564 28.175 18.1877L29.5562 19.1971C29.7156 19.3033 29.9281 19.3564 30.1406 19.2502C30.3531 19.1439 30.6187 19.0377 30.8844 18.9314C31.0969 18.8783 31.2031 18.7189 31.2563 18.5064L31.5219 16.7533C31.6281 15.9564 32.3188 15.3721 33.1688 15.3721H34.3375C35.1344 15.3721 35.825 15.9564 35.9844 16.7533L36.25 18.4533C36.3031 18.6658 36.4094 18.8252 36.6219 18.8783C36.8875 18.9846 37.1531 19.0908 37.3656 19.1971C37.525 19.3033 37.7906 19.2502 37.95 19.1439L39.3312 18.1346C39.9688 17.6564 40.925 17.7096 41.5094 18.2939L42.3594 19.1439C42.9438 19.7283 42.9969 20.6314 42.5187 21.2689L41.4562 22.7033C41.35 22.8627 41.2969 23.0752 41.4031 23.2346C41.5094 23.5002 41.6156 23.7658 41.7219 23.9783C41.775 24.1908 41.9344 24.2971 42.1469 24.3502L43.8469 24.6158C44.6437 24.7221 45.2281 25.4127 45.2281 26.2627V27.4314C45.2281 28.2283 44.6437 28.9189 43.8469 29.0783L42.0938 29.2908C41.8813 29.3439 41.7219 29.4502 41.6688 29.6627C41.5625 29.9814 41.4562 30.1939 41.35 30.4064C41.2437 30.5658 41.2969 30.7783 41.4031 30.9377L41.7219 31.4158C41.8813 31.6814 41.8281 32.0002 41.6156 32.1596C41.5094 32.2658 41.4031 32.3189 41.2969 32.3189Z" fill="#F6AC12" stroke="#F6AC12"/>
<path d="M33.7529 32.3187C30.6717 32.3187 28.1748 29.875 28.1748 26.8469C28.1748 23.8187 30.6717 21.375 33.7529 21.375C36.8342 21.375 39.3311 23.8187 39.3311 26.8469C39.3311 29.8219 36.8342 32.3187 33.7529 32.3187ZM33.7529 22.4375C31.3092 22.4375 29.2904 24.4031 29.2904 26.8469C29.2904 29.2906 31.3092 31.2563 33.7529 31.2563C36.1967 31.2563 38.2154 29.2906 38.2154 26.8469C38.2154 24.4031 36.1967 22.4375 33.7529 22.4375Z" fill="#F6AC12" stroke="#F6AC12"/>
<path d="M28.1217 43.3688C27.8561 43.3688 27.6436 43.2094 27.5904 42.9437C27.4842 42.6781 27.6967 42.3594 27.9623 42.2531C28.3873 42.1469 28.8123 42.0938 29.2904 42.0938H37.6311C38.4811 42.0938 39.2779 41.8281 39.9154 41.35C43.0498 39.0656 45.7061 35.9844 47.8311 32.2125C47.9373 32.0531 47.9373 31.8406 47.8842 31.6812C47.8311 31.5219 47.7248 31.3625 47.5123 31.2563C47.1404 31.0969 46.7686 30.9906 46.3436 30.9906C45.4404 30.9906 44.5904 31.4688 44.1123 32.2125C44.0061 32.425 43.3154 33.7 42.8904 34.125C42.1467 34.8156 39.9686 35.825 39.2779 36.0906C39.0123 36.1969 38.6936 36.0906 38.5342 35.825C38.4279 35.5594 38.5342 35.2406 38.7998 35.0812C40.1279 34.4969 41.6686 33.7 42.0936 33.275C42.3061 33.1156 42.7842 32.2656 43.1029 31.6281C43.7936 30.5125 45.0154 29.875 46.2904 29.875C46.8748 29.875 47.4061 29.9813 47.9373 30.2469C48.3623 30.4594 48.7342 30.8313 48.8404 31.3094C48.9998 31.7875 48.9467 32.2656 48.6811 32.6906C46.5029 36.5687 43.7404 39.7562 40.4998 42.1469C39.6498 42.7844 38.6404 43.1031 37.5248 43.1031H29.2904C28.9186 43.1031 28.5998 43.1562 28.2811 43.2625C28.2279 43.3688 28.1748 43.3688 28.1217 43.3688Z" fill="#F6AC12" stroke="#F6AC12"/>
<path d="M37.5249 38.7473H30.5655C30.2468 38.7473 30.0343 38.4816 30.0343 38.216C30.0343 37.9504 30.2999 37.6848 30.5655 37.6848H37.5249C38.1624 37.6848 38.6937 37.1535 38.6937 36.516C38.6937 36.1973 38.5874 35.9316 38.3218 35.7191C38.1093 35.5066 37.7905 35.4004 37.4718 35.4004H33.8062C32.7968 35.4004 31.7874 35.0816 30.9374 34.4441C30.4062 33.8598 29.6624 33.5941 28.8655 33.5941H26.2093C25.3062 33.5941 24.403 33.9129 23.7655 34.5504L21.7468 36.4629C21.5343 36.6754 21.1624 36.6754 20.9499 36.4629C20.7374 36.2504 20.7374 35.8785 20.9499 35.666L22.9687 33.7535C23.8187 32.9566 24.9874 32.4785 26.1562 32.4785H28.8124C29.8218 32.4785 30.8312 32.7973 31.6812 33.4348C32.3187 33.9129 33.0624 34.1785 33.8593 34.1785H37.5249C38.1093 34.1785 38.7468 34.4441 39.1187 34.816C39.5437 35.241 39.8093 35.8254 39.8093 36.4098C39.8093 37.7379 38.7999 38.7473 37.5249 38.7473Z" fill="#F6AC12" stroke="#F6AC12"/>
<path d="M24.0844 48.6281C23.925 48.6281 23.8187 48.575 23.7125 48.4688L15.1594 40.0219C15.0531 39.9156 15 39.8094 15 39.65C15 39.4906 15.0531 39.3844 15.1594 39.2781L17.3906 37.1C18.0812 36.4094 19.3031 36.4094 19.9937 37.1L26.6875 43.6875C27.0594 44.0063 27.2188 44.4844 27.2188 44.9625C27.2188 45.4406 27.0063 45.9188 26.6875 46.2906L24.4562 48.4688C24.35 48.575 24.2438 48.6281 24.0844 48.6281ZM16.3281 39.65L24.0844 47.3L25.9438 45.4938C26.1031 45.3344 26.1562 45.175 26.1562 44.9625C26.1562 44.75 26.1031 44.5906 25.9438 44.4313L19.1969 37.8438C18.9313 37.5781 18.4 37.5781 18.1344 37.8438L16.3281 39.65Z" fill="#F6AC12" stroke="#F6AC12"/>
</svg>