<svg width="55" height="53" viewBox="0 0 55 53" fill="none" xmlns="http://www.w3.org/2000/svg">
<path d="M17.9737 48.0895H2.63209C2.2572 48.0895 1.89766 47.9395 1.63257 47.6726C1.36749 47.4057 1.21856 47.0436 1.21856 46.6662V2.74082C1.21855 2.36278 1.36729 2.00013 1.6322 1.73223C1.89712 1.46434 2.25664 1.31303 2.63209 1.31141H29.9643H30.0557V7.93702C30.0557 8.42514 30.2483 8.89326 30.5911 9.23841C30.9339 9.58356 31.3988 9.77747 31.8836 9.77747H38.4638C38.4638 9.77747 38.4638 9.83881 38.4638 9.86949V27.2679C38.4638 27.4306 38.528 27.5866 38.6422 27.7017C38.7565 27.8167 38.9115 27.8813 39.0731 27.8813C39.2346 27.8813 39.3896 27.8167 39.5039 27.7017C39.6181 27.5866 39.6823 27.4306 39.6823 27.2679V9.90629C39.683 9.60231 39.6242 9.30119 39.5092 9.02013C39.3942 8.73906 39.2253 8.48358 39.0121 8.2683L31.5607 0.771543C31.3475 0.555555 31.0941 0.384183 30.8149 0.267308C30.5357 0.150433 30.2362 0.0903674 29.9339 0.0905767H2.63209C1.93395 0.0938143 1.26542 0.374915 0.772327 0.872557C0.279236 1.3702 0.00160122 2.04399 0 2.74695V46.6723C0.00160918 47.3747 0.279436 48.0479 0.772699 48.5445C1.26596 49.0412 1.93451 49.3209 2.63209 49.3225H17.9737C18.1353 49.3225 18.2903 49.2579 18.4046 49.1429C18.5188 49.0278 18.583 48.8718 18.583 48.7091C18.583 48.5464 18.5188 48.3903 18.4046 48.2753C18.2903 48.1602 18.1353 48.0956 17.9737 48.0956V48.0895ZM37.6352 8.58118H31.914C31.7524 8.58118 31.5975 8.51654 31.4832 8.40149C31.369 8.28644 31.3048 8.1304 31.3048 7.9677V2.20095L37.6352 8.58118Z" fill="#003375"/>
<path d="M15.8041 11.2314H12.1484V16.5074H15.8041C16.2297 16.5058 16.6372 16.3344 16.9376 16.0309C17.2379 15.7273 17.4065 15.3163 17.4065 14.8878V12.851C17.4065 12.4226 17.2379 12.0115 16.9376 11.708C16.6372 11.4044 16.2297 11.2331 15.8041 11.2314Z" fill="#FCE0B2"/>
<path d="M22.2499 16.1516C22.2511 14.5169 21.7708 12.9187 20.8697 11.5589C19.9687 10.1991 18.6873 9.13903 17.1878 8.51263C15.6883 7.88624 14.038 7.72171 12.4456 8.03987C10.8532 8.35803 9.39024 9.14458 8.24187 10.3C7.09349 11.4555 6.31124 12.9279 5.99408 14.531C5.67692 16.1342 5.83909 17.796 6.46008 19.3064C7.08107 20.8167 8.13296 22.1077 9.48273 23.016C10.8325 23.9242 12.4195 24.4091 14.0429 24.4091C16.218 24.4074 18.3036 23.5371 19.8422 21.9891C21.3808 20.441 22.2467 18.3417 22.2499 16.1516ZM18.6247 14.8878C18.6255 15.2613 18.5531 15.6314 18.4117 15.9767C18.2703 16.322 18.0626 16.6359 17.8006 16.9003C17.5386 17.1647 17.2273 17.3744 16.8847 17.5176C16.542 17.6607 16.1747 17.7344 15.8037 17.7344H12.1481V18.6914H15.2859C15.4474 18.6914 15.6024 18.756 15.7167 18.8711C15.8309 18.9861 15.8951 19.1422 15.8951 19.3049C15.8951 19.4676 15.8309 19.6236 15.7167 19.7387C15.6024 19.8537 15.4474 19.9184 15.2859 19.9184H12.1724V22.1514C12.1724 22.3141 12.1082 22.4702 11.994 22.5852C11.8797 22.7003 11.7248 22.7649 11.5632 22.7649C11.4016 22.7649 11.2466 22.7003 11.1323 22.5852C11.0181 22.4702 10.9539 22.3141 10.9539 22.1514V19.9184H10.3446C10.183 19.9184 10.028 19.8537 9.91378 19.7387C9.79952 19.6236 9.73532 19.4676 9.73532 19.3049C9.73532 19.1422 9.79952 18.9861 9.91378 18.8711C10.028 18.756 10.183 18.6914 10.3446 18.6914H10.9539V10.7161C10.9619 10.6967 10.9661 10.6758 10.9661 10.6548C10.9661 10.6337 10.9619 10.6129 10.9539 10.5934C10.9539 10.4307 11.0181 10.2747 11.1323 10.1596C11.2466 10.0446 11.4016 9.97995 11.5632 9.97995H15.8281C16.1991 9.97995 16.5664 10.0536 16.909 10.1968C17.2517 10.3399 17.563 10.5496 17.825 10.8141C18.087 11.0785 18.2947 11.3923 18.4361 11.7376C18.5775 12.083 18.6499 12.453 18.6491 12.8265L18.6247 14.8878Z" fill="#FCE0B2"/>
<path d="M14.0442 6.66699C12.1815 6.66821 10.3609 7.22549 8.81272 8.26839C7.2645 9.31129 6.05813 10.793 5.34613 12.5261C4.63413 14.2593 4.44846 16.1661 4.8126 18.0055C5.17674 19.8449 6.07433 21.5343 7.39191 22.8601C8.70949 24.1859 10.3879 25.0886 12.2149 25.4541C14.0419 25.8195 15.9356 25.6314 17.6564 24.9133C19.3772 24.1953 20.848 22.9796 21.8827 21.4201C22.9175 19.8605 23.4698 18.027 23.4698 16.1514C23.4665 13.6359 22.4723 11.2245 20.7052 9.44635C18.9381 7.6682 16.5425 6.66862 14.0442 6.66699ZM5.84333 16.1514C5.84213 14.5165 6.32258 12.918 7.22392 11.5581C8.12525 10.1982 9.40694 9.13811 10.9068 8.5119C12.4067 7.88568 14.0574 7.72152 15.6499 8.04018C17.2425 8.35883 18.7054 9.14599 19.8535 10.302C21.0017 11.4581 21.7834 12.9311 22.0999 14.5347C22.4164 16.1382 22.2533 17.8003 21.6314 19.3105C21.0095 20.8207 19.9566 22.1112 18.6061 23.0188C17.2555 23.9263 15.6679 24.4101 14.0442 24.4089C11.8702 24.4057 9.78614 23.5346 8.24888 21.9868C6.71161 20.4389 5.84656 18.3405 5.84333 16.1514Z" fill="#003375"/>
<path d="M5.23428 32.6359H13.3864C13.548 32.6359 13.703 32.5713 13.8172 32.4562C13.9315 32.3412 13.9957 32.1851 13.9957 32.0224C13.9957 31.8597 13.9315 31.7037 13.8172 31.5886C13.703 31.4736 13.548 31.4089 13.3864 31.4089H5.23428C5.07269 31.4089 4.91772 31.4736 4.80345 31.5886C4.68919 31.7037 4.625 31.8597 4.625 32.0224C4.625 32.1851 4.68919 32.3412 4.80345 32.4562C4.91772 32.5713 5.07269 32.6359 5.23428 32.6359Z" fill="#003375"/>
<path d="M18.7542 36.3474H5.23428C5.07269 36.3474 4.91772 36.412 4.80345 36.5271C4.68919 36.6421 4.625 36.7982 4.625 36.9609C4.625 37.1236 4.68919 37.2796 4.80345 37.3947C4.91772 37.5097 5.07269 37.5744 5.23428 37.5744H18.7542C18.9158 37.5744 19.0707 37.5097 19.185 37.3947C19.2993 37.2796 19.3634 37.1236 19.3634 36.9609C19.3634 36.7982 19.2993 36.6421 19.185 36.5271C19.0707 36.412 18.9158 36.3474 18.7542 36.3474Z" fill="#003375"/>
<path d="M18.7542 41.2798H5.23428C5.07269 41.2798 4.91772 41.3444 4.80345 41.4595C4.68919 41.5745 4.625 41.7306 4.625 41.8933C4.625 42.056 4.68919 42.212 4.80345 42.3271C4.91772 42.4421 5.07269 42.5068 5.23428 42.5068H18.7542C18.9158 42.5068 19.0707 42.4421 19.185 42.3271C19.2993 42.212 19.3634 42.056 19.3634 41.8933C19.3634 41.7306 19.2993 41.5745 19.185 41.4595C19.0707 41.3444 18.9158 41.2798 18.7542 41.2798Z" fill="#003375"/>
<path d="M30.3666 40.1879L29.9158 40.1327C28.7338 39.9732 27.7345 39.8628 26.9364 39.7953C25.9221 39.7264 24.9043 39.7264 23.89 39.7953H23.5854C23.5396 39.7969 23.4962 39.8163 23.4643 39.8495C23.4325 39.8827 23.4147 39.9271 23.4148 39.9732V40.2861C23.3799 40.8046 23.4525 41.3249 23.628 41.8137C23.736 42.0755 23.9116 42.3034 24.1366 42.4738C24.3616 42.6443 24.6277 42.751 24.9075 42.783H26.2174C26.5464 42.783 29.1907 42.1695 29.6903 41.6419C29.9364 41.4123 30.1424 41.1427 30.2996 40.8443L30.5068 40.4272C30.5201 40.4027 30.5271 40.3753 30.5271 40.3474C30.5271 40.3195 30.5201 40.2921 30.5068 40.2677C30.4913 40.2442 30.4706 40.2247 30.4462 40.2108C30.4219 40.1969 30.3946 40.1891 30.3666 40.1879ZM26.2357 41.783H24.9258C24.7576 41.7053 24.6263 41.5644 24.5602 41.3903C24.4926 41.1929 24.4576 40.9857 24.4566 40.7769C25.2541 40.7308 26.0536 40.7308 26.8511 40.7769C27.4238 40.8198 28.0696 40.8934 28.8434 40.9854C27.9987 41.3268 27.1262 41.5936 26.2357 41.783Z" fill="#003375"/>
<path d="M24.457 40.7891C24.458 40.998 24.493 41.2052 24.5606 41.4026C24.6267 41.5766 24.758 41.7176 24.9262 41.7952H26.2361C27.1255 41.6178 27.998 41.3633 28.8438 41.0345C28.0944 40.9425 27.4242 40.8689 26.8515 40.8259C26.0547 40.7676 25.2552 40.7553 24.457 40.7891Z" fill="#FCE0B2"/>
<path d="M42.8265 41.2246C42.6393 40.9872 42.4012 40.7955 42.1301 40.6638C41.8589 40.5321 41.5617 40.4637 41.2607 40.4639H33.4314C33.1302 40.4628 32.8328 40.5308 32.5615 40.6626C32.2902 40.7944 32.0522 40.9865 31.8656 41.2246L30.8725 42.4516C30.8575 42.4777 30.8496 42.5073 30.8496 42.5374C30.8496 42.5676 30.8575 42.5972 30.8725 42.6233L30.9334 42.8012C32.152 46.1263 32.7612 46.8073 33.3705 46.8073H41.3277C41.937 46.8073 42.5889 46.1386 43.7953 42.8012L43.8562 42.6233C43.8662 42.5945 43.8687 42.5635 43.8633 42.5334C43.858 42.5033 43.845 42.4751 43.8257 42.4516L42.8265 41.2246ZM42.6194 43.0282C41.7725 45.2797 41.3582 45.7214 41.2668 45.8012H33.4375C33.3522 45.7337 32.9379 45.3227 32.0728 43.0282C32.04 42.9419 32.03 42.8484 32.0439 42.757C32.0578 42.6655 32.095 42.5793 32.152 42.5068L32.7612 41.7522C32.828 41.6706 32.9116 41.6047 33.0064 41.5591C33.1011 41.5135 33.2046 41.4894 33.3096 41.4884H41.4191C41.5233 41.4886 41.6262 41.5124 41.7201 41.558C41.814 41.6037 41.8964 41.6701 41.9613 41.7522L42.5706 42.5068C42.6226 42.5821 42.6544 42.6697 42.6629 42.7611C42.6714 42.8524 42.6564 42.9444 42.6194 43.0282Z" fill="#003375"/>
<path d="M50.9478 39.8136H50.6371C49.6228 39.7444 48.605 39.7444 47.5907 39.8136C46.7926 39.8811 45.7629 39.9915 44.6113 40.151L44.1544 40.2062C44.1258 40.2103 44.0986 40.2214 44.0752 40.2385C44.0518 40.2556 44.033 40.2782 44.0203 40.3044C44.007 40.3288 44 40.3563 44 40.3841C44 40.412 44.007 40.4395 44.0203 40.4639L44.2336 40.8872C44.3912 41.1817 44.5972 41.4472 44.8429 41.6724C45.3425 42.1816 47.9928 42.8197 48.3158 42.8197H49.6318C49.9109 42.7879 50.1763 42.6812 50.4004 42.5107C50.6244 42.3401 50.7988 42.1121 50.9052 41.8504C51.0826 41.362 51.1553 40.8414 51.1184 40.3228V40.0099C51.1209 39.9856 51.1185 39.9609 51.1111 39.9376C51.1037 39.9143 51.0917 39.8927 51.0757 39.8743C51.0597 39.8559 51.04 39.8409 51.018 39.8305C50.996 39.8201 50.9721 39.8143 50.9478 39.8136ZM49.9852 41.3902C49.9189 41.5621 49.7905 41.7024 49.6257 41.7829H48.3158C47.4247 41.6043 46.5502 41.3498 45.7019 41.0222C46.4574 40.9301 47.1216 40.8565 47.6943 40.8136C48.4916 40.7614 49.2914 40.7614 50.0887 40.8136C50.0881 41.0104 50.0531 41.2056 49.9852 41.3902Z" fill="#003375"/>
<path d="M47.6935 40.8136C47.1208 40.8566 46.475 40.9302 45.7012 41.0222C46.5495 41.3499 47.4239 41.6044 48.315 41.7829H49.6249C49.7897 41.7024 49.9181 41.5622 49.9844 41.3903C50.0567 41.1941 50.0918 40.986 50.088 40.7768C49.2899 40.7369 48.49 40.7492 47.6935 40.8136Z" fill="#FCE0B2"/>
<path d="M53.2989 38.9793L50.3926 36.053C49.7041 34.691 49.0887 33.599 48.5648 32.734C47.8798 31.6606 47.1225 30.6357 46.2983 29.6666L46.2008 29.5439C46.1645 29.5074 46.1175 29.4838 46.0667 29.4764H45.9144C40.2164 28.9734 34.4856 28.9734 28.7876 29.4764H28.6353C28.5836 29.4807 28.5356 29.5049 28.5012 29.5439L28.4037 29.6666C27.5782 30.6362 26.819 31.661 26.1311 32.734C25.595 33.5929 24.9796 34.7094 24.3033 36.053L21.397 38.9793C21.0616 39.323 20.8735 39.7856 20.8731 40.2676V50.1937C20.8723 50.4166 20.9152 50.6374 20.9993 50.8436C21.0835 51.0497 21.2072 51.2371 21.3634 51.395C21.5197 51.5528 21.7053 51.6781 21.9097 51.7636C22.1142 51.8491 22.3333 51.8931 22.5547 51.8931H26.253C26.6985 51.8883 27.1244 51.7075 27.4389 51.3897C27.7534 51.0718 27.9314 50.6424 27.9346 50.1937V49.6539H46.7796V50.1937C46.7812 50.6429 46.9587 51.0732 47.2735 51.3914C47.5884 51.7096 48.0151 51.8898 48.4612 51.8931H52.1595C52.605 51.8915 53.0318 51.7125 53.3468 51.3954C53.6618 51.0782 53.8395 50.6484 53.8411 50.1999V40.2676C53.8359 39.783 53.641 39.3201 53.2989 38.9793ZM27.0999 33.3414C27.7138 32.3856 28.3895 31.4716 29.1227 30.6052C34.5964 30.1393 40.0995 30.1393 45.5732 30.6052C46.3064 31.4716 46.9821 32.3856 47.596 33.3414C48.0164 34.0162 48.4856 34.8505 48.9913 35.7953H25.6925C26.2042 34.8444 26.6734 34.0101 27.0938 33.3659L27.0999 33.3414ZM52.6896 50.1937C52.6881 50.3386 52.6306 50.4772 52.5294 50.5803C52.4282 50.6833 52.2912 50.7427 52.1473 50.7459H48.449C48.3051 50.7427 48.1681 50.6833 48.0669 50.5803C47.9657 50.4772 47.9083 50.3386 47.9068 50.1937V48.703C47.9068 48.6767 47.9015 48.6506 47.8914 48.6264C47.8812 48.6022 47.8663 48.5802 47.8475 48.5619C47.8288 48.5436 47.8065 48.5293 47.7822 48.5198C47.7578 48.5103 47.7318 48.5058 47.7057 48.5066H26.9902C26.9385 48.5066 26.8889 48.5273 26.8523 48.5641C26.8158 48.601 26.7952 48.6509 26.7952 48.703V50.1937C26.7937 50.3386 26.7363 50.4772 26.6351 50.5803C26.5339 50.6833 26.3969 50.7427 26.253 50.7459H22.5486C22.4058 50.7442 22.2694 50.686 22.1691 50.5838C22.0687 50.4816 22.0124 50.3436 22.0124 50.1999V40.513C22.0098 40.3465 22.0409 40.1813 22.1037 40.0273C22.1666 39.8733 22.2599 39.7338 22.378 39.6173L25.0101 36.967H49.7041L52.3362 39.6173C52.4543 39.7338 52.5476 39.8733 52.6105 40.0273C52.6733 40.1813 52.7044 40.3465 52.7018 40.513L52.6896 50.1937Z" fill="#003375"/>
<path d="M47.5967 33.3658C46.9828 32.4101 46.3071 31.4961 45.5739 30.6297C40.1002 30.1638 34.5971 30.1638 29.1234 30.6297C28.3902 31.4961 27.7145 32.4101 27.1006 33.3658C26.6802 34.0345 26.211 34.8689 25.6992 35.8198H48.9737C48.4863 34.8505 48.0171 34.0161 47.5967 33.3658Z" fill="#FCE0B2"/>
<path d="M15.8037 10.0045H11.5388C11.3772 10.0045 11.2222 10.0691 11.1079 10.1842C10.9937 10.2992 10.9295 10.4553 10.9295 10.618C10.9375 10.6374 10.9417 10.6583 10.9417 10.6793C10.9417 10.7004 10.9375 10.7212 10.9295 10.7407V18.716H10.3202C10.1586 18.716 10.0037 18.7806 9.88939 18.8956C9.77513 19.0107 9.71094 19.1667 9.71094 19.3294C9.71094 19.4921 9.77513 19.6482 9.88939 19.7632C10.0037 19.8783 10.1586 19.9429 10.3202 19.9429H10.9295V22.176C10.9295 22.3387 10.9937 22.4947 11.1079 22.6098C11.2222 22.7248 11.3772 22.7895 11.5388 22.7895C11.7004 22.7895 11.8553 22.7248 11.9696 22.6098C12.0839 22.4947 12.1481 22.3387 12.1481 22.176V19.9429H15.2858C15.4474 19.9429 15.6024 19.8783 15.7167 19.7632C15.8309 19.6482 15.8951 19.4921 15.8951 19.3294C15.8951 19.1667 15.8309 19.0107 15.7167 18.8956C15.6024 18.7806 15.4474 18.716 15.2858 18.716H12.1724V17.7589H15.8281C16.1991 17.7589 16.5664 17.6852 16.909 17.5421C17.2517 17.399 17.5629 17.1892 17.825 16.9248C18.087 16.6604 18.2947 16.3466 18.4361 16.0012C18.5775 15.6559 18.6499 15.2859 18.6491 14.9124V12.8756C18.6531 12.4979 18.5823 12.1233 18.4409 11.7735C18.2994 11.4237 18.0901 11.1058 17.8251 10.8385C17.5602 10.5711 17.2449 10.3597 16.8979 10.2165C16.5508 10.0733 16.1788 10.0012 15.8037 10.0045ZM17.4061 14.9124C17.4061 15.3408 17.2375 15.7519 16.9372 16.0554C16.6368 16.359 16.2293 16.5303 15.8037 16.532H12.1481V11.256H15.8037C16.2293 11.2576 16.6368 11.429 16.9372 11.7325C17.2375 12.0361 17.4061 12.4471 17.4061 12.8756V14.9124Z" fill="#003375"/>
</svg>
