<svg width="40" height="40" viewBox="0 0 40 40" fill="none" xmlns="http://www.w3.org/2000/svg">
<path d="M2.08886 23.8056C2.24877 23.772 2.38907 23.6769 2.47958 23.5409C2.57008 23.4049 2.60357 23.2388 2.57282 23.0784C2.39096 22.0559 2.29966 21.0195 2.29999 19.981C2.30509 17.5447 2.81278 15.1357 3.79136 12.9044C4.76993 10.6732 6.19836 8.6676 7.98736 7.01308C9.77637 5.35856 11.8875 4.09063 14.1889 3.28852C16.4903 2.48641 18.9324 2.16736 21.3627 2.3513C25.5728 2.68482 29.526 4.50762 32.5126 7.49243C35.4992 10.4772 37.3236 14.4285 37.658 18.6369C37.8402 21.0652 37.5195 23.5051 36.716 25.804C35.9125 28.103 34.6435 30.2116 32.9881 31.9983C31.3327 33.7849 29.3265 35.2112 27.0949 36.1881C24.8633 37.1649 22.4542 37.6713 20.018 37.6756C17.1022 37.6853 14.2296 36.9706 11.6585 35.5958C9.08742 34.2209 6.89839 32.229 5.28817 29.7991C5.19575 29.6636 5.05413 29.5695 4.89341 29.5368C4.73268 29.504 4.56552 29.5352 4.42744 29.6238C4.35536 29.6679 4.29306 29.7263 4.24437 29.7953C4.19567 29.8644 4.16162 29.9427 4.14428 30.0254C4.12695 30.1081 4.12669 30.1934 4.14355 30.2762C4.16041 30.359 4.19401 30.4375 4.2423 30.5069C6.13376 33.3577 8.76491 35.6409 11.8543 37.1124C14.9437 38.5839 18.3752 39.1882 21.7817 38.8607C30.4182 38.075 38.2167 30.1432 38.8891 21.5037C39.094 18.8996 38.7585 16.2812 37.9036 13.8128C37.0487 11.3444 35.6929 9.07912 33.9211 7.15902C32.1494 5.23893 29.9999 3.70541 27.6075 2.65462C25.215 1.60383 22.6312 1.05843 20.018 1.05261C14.9937 1.05432 10.1752 3.04818 6.61976 6.59673C3.06429 10.1453 1.0622 14.9587 1.05274 19.981C1.05231 21.0989 1.15013 22.2146 1.34507 23.3154C1.3605 23.397 1.39218 23.4747 1.43823 23.5438C1.48428 23.613 1.54376 23.6722 1.61313 23.7179C1.68251 23.7636 1.76037 23.795 1.84209 23.81C1.92382 23.8251 2.00773 23.8236 2.08886 23.8056Z" fill="#FDBA4D"/>
<path d="M20.0132 34.9786C23.9805 34.9704 27.7824 33.3887 30.5848 30.5806C33.3871 27.7724 34.961 23.9672 34.961 20C34.9573 16.0352 33.3819 12.2335 30.5799 9.42832C27.7779 6.62314 23.9781 5.04332 20.0132 5.03516C16.0436 5.03606 12.2367 6.61268 9.42884 9.41864C6.62095 12.2246 5.04172 16.0304 5.03809 20C5.03809 23.972 6.61571 27.7813 9.424 30.5903C12.2323 33.3992 16.0413 34.9777 20.0132 34.9786ZM33.6585 20.0172C33.6494 23.6314 32.2082 27.0948 29.6506 29.6485C27.093 32.2023 23.6275 33.6382 20.0132 33.6418C16.396 33.6382 12.9279 32.1999 10.3698 29.6424C7.81171 27.085 6.37253 23.6173 6.36799 20C6.37162 16.3822 7.81041 12.9136 10.3686 10.3554C12.9268 7.79719 16.3954 6.35841 20.0132 6.35478C23.6287 6.36204 27.0938 7.80242 29.649 10.3602C32.2042 12.918 33.6412 16.3846 33.6448 20L33.6585 20.0172Z" fill="#FDBA4D"/>
<path d="M15.2632 24.6547H16.6993V26.5193C16.6993 26.6938 16.7687 26.8612 16.8921 26.9846C17.0155 27.1081 17.1829 27.1774 17.3574 27.1774C17.532 27.1774 17.6993 27.1081 17.8228 26.9846C17.9462 26.8612 18.0155 26.6938 18.0155 26.5193V24.6547H21.9675C22.1395 24.6539 22.3043 24.5861 22.4271 24.4658C22.55 24.3456 22.6212 24.1822 22.6256 24.0103C22.6293 23.9216 22.615 23.8331 22.5836 23.75C22.5522 23.667 22.5043 23.5912 22.4428 23.5271C22.3814 23.4631 22.3076 23.4121 22.2259 23.3774C22.1442 23.3426 22.0563 23.3247 21.9675 23.3248H18.0155V21.5082H21.9675C25.9744 21.5082 26.8176 19.2494 26.8176 17.3573C26.8176 12.8192 23.294 12.8192 21.9675 12.8192H16.6993V21.4705V23.3248H15.2632C15.1744 23.3247 15.0865 23.3426 15.0048 23.3774C14.9231 23.4121 14.8493 23.4631 14.7878 23.5271C14.7264 23.5912 14.6785 23.667 14.6471 23.75C14.6156 23.8331 14.6014 23.9216 14.6051 24.0103C14.6095 24.1822 14.6807 24.3456 14.8035 24.4658C14.9264 24.5861 15.0912 24.6539 15.2632 24.6547ZM18.0052 14.1388H21.9573C23.8184 14.1388 25.4877 14.3822 25.4877 17.3573C25.4877 19.3179 24.4011 20.1885 21.9573 20.1885H18.0052V14.1388Z" fill="#FDBA4D"/>
<path d="M2.63178 27.3684C2.92246 27.3684 3.1581 27.1328 3.1581 26.8421C3.1581 26.5514 2.92246 26.3158 2.63178 26.3158C2.34111 26.3158 2.10547 26.5514 2.10547 26.8421C2.10547 27.1328 2.34111 27.3684 2.63178 27.3684Z" fill="#FDBA4D"/>
</svg>